<svg xmlns="http://www.w3.org/2000/svg" viewBox="0 0 300 300"><defs><style>.a{fill:#00092f;}.a,.b,.c,.d,.e,.f,.g,.h{fill-rule:evenodd;}.b{fill:#e88d95;}.c{fill:#d2416e;}.d{fill:#616161;}.e{fill:#8b8b8b;}.f{fill:#dfa830;}.g{fill:#da6771;}.h{fill:#ffd853;}.i,.j{fill:none;stroke-linecap:round;stroke-linejoin:round;}.i{stroke:#1a1a1a;stroke-width:1.587px;}.j{stroke:#da6771;stroke-width:1.427px;}</style></defs><title>Foody</title><path class="a" d="M168.3,30.709C172.085,26.7,173.646,19,173.039,14.7a11.554,11.554,0,0,0-10.65-9.6c-6.092-.342-13.041.1-18.155,3.394a58.475,58.475,0,0,0-10.107,8.947,19.058,19.058,0,0,0,.368-7.416c-.582-4.313-4.784-4.982-7.232-3.95A4.552,4.552,0,0,0,124.2,9.357a9.207,9.207,0,0,0-.238,2.714,4.962,4.962,0,0,0-2.9-2.14,5.8,5.8,0,0,0-4.653,1.224,6.505,6.505,0,0,0-2.68,3.807c-.461,1.844.958,4.96.958,4.96a5.339,5.339,0,0,0-3.355,1.737,9.346,9.346,0,0,0-2.767,5.607,8.4,8.4,0,0,0,.886,4.867,24.628,24.628,0,0,0,2.97,3.279,18.993,18.993,0,0,0-2.033,2.151,13.107,13.107,0,0,0-2.693,4.6,13.145,13.145,0,0,0-.039,6.669,6.847,6.847,0,0,0,7.684,4.816,19.91,19.91,0,0,0-2.438,4.74,6.479,6.479,0,0,0,.916,5.466,45.162,45.162,0,0,0,5.386,5.007l3.851,8.078,3.955-1.4s.6,3.763,3.011,5.256a9.712,9.712,0,0,0,7.085.954c1.582-.43,2.984-2.913,2.984-2.913s1.968,2.852,4.713,3.24,17.631-3.542,17.631-3.542L149.859,43.294s14.648-8.577,18.437-12.585Z"/><path class="b" d="M164.274,19.2A63.852,63.852,0,0,1,169.8,36.389c.9,6.318,1.041,14.24-.009,18.8a15.894,15.894,0,0,1-5.865,9.266c-2.264,1.682-7.261,3.885-11.946,2.489s-8.341-3.75-10.381-6.682a19.949,19.949,0,0,0,.85-5.861,18.907,18.907,0,0,0-.85-5.361c-2.73.98-4.729-.768-5.37-3.52s.734-4.756,3.27-4.416,6.5-2.413,5.811-6.217a21.808,21.808,0,0,0,9.118-1.926,14.462,14.462,0,0,0,6.626-5.485c1.6-2.436,3.222-6.1,3.222-8.27Z"/><path class="c" d="M143.7,8.843c-.1.2-1.252.917-1.59,1.225a29.039,29.039,0,0,0-2.392,2.685,30.851,30.851,0,0,0-4.961,8c-1.946,4.672-3.627,10.064-3.792,15.172a17.39,17.39,0,0,0,.467,5.135,17.845,17.845,0,0,0,.524,1.751c.065.192.536,1.109.351,1.109a21.3,21.3,0,0,1-2.042-2.392c-1.562-2.291-3.262-4.344-3.91-7.12a30.6,30.6,0,0,1-.993-7.645,24.015,24.015,0,0,1,7.47-16.4c2.111-2.095,5.267-3.851,8.287-3.851a6.449,6.449,0,0,1,3.991,1.457l-1.41.877Z"/><path class="a" d="M196.241,282.583c2.607,2.132,6.336,4.233,8.6,5.843a23.134,23.134,0,0,0,6.125,3.408c1.757.524,2.052,2.373.523,2.877s-4.1.208-6.872.156l-9.38-.174c-2.745-.052-6.515.076-8.288-.894s-1.774-3.129-1.774-4.86,2.071-6.128,2.071-6.128,6.393-2.361,9-.228Z"/><path class="a" d="M122.561,254.7c-.463,2.6-.6,5.9-.921,9.819a97.457,97.457,0,0,0,.231,11.6c.1,2.519-1.558,4.015-3.177,1.348a65.94,65.94,0,0,1-5.443-12.409c-1.262-4.165-1.394-9.192-2.009-11.341s-1.122-4.538-.208-4.726l7.047-1.453s4.941,4.564,4.48,7.164Z"/><path class="d" d="M194.1,120.588c.532,3.837,1.923,12.5,2.827,20.4s.569,18.611,1,23.323.479,18.07.6,22,.264,8.556.314,10.194-.026,24.541-.567,30.967-1.036,19.277-1.27,27.73-.324,11.709-.41,14.836-.347,12.548-.347,12.548l-9,.228s-3.33-8.8-5.232-15.774-2.165-10.825-3.352-17.574-3.249-14.439-3.95-18.013-3.214-13.188-3.214-13.188l8.867-26.077-7.2-45.068,10.1-25.5s10.3-4.863,10.83-1.026Z"/><path class="e" d="M157.853,121.614c-2,1.963-3.9,5.9-5.3,8.693s-2.428,8.381-2.642,11.866a157.065,157.065,0,0,0,.415,18.294c.534,5.374,2.65,11.783,5.1,17.194l5.6,12.347a115.5,115.5,0,0,0-13.364,16.833c-5.868,9.231-11.926,14.92-17.123,21.625l-13.474,17.381,5.576,9.352,2.7-2.1s6.619-5.609,13.186-10.268l23.844-16.918c6.842-4.855,16.091-14.4,20.882-19.346s5.61-9.53,5.778-14.156-.69-21.64-1.062-27.466-1.2-18.8-1.466-22.971-.643-10.081-.643-10.081,3.989-4.739,5.439-7l2.712-4.23a14.417,14.417,0,0,0-.247-2.6c-.276-1.573-.808-4.615-1.062-6.059s-2.237-3.565-2.237-3.565-30.63,11.209-32.625,13.172Z"/><path class="f" d="M203.626,25.272a29.341,29.341,0,0,1-1.452,3.38,21.78,21.78,0,0,1-10.708,9.487c-2.755,1.148-6.425,1.926-9.145.16-4.274-2.775-3.432-8.619-1.95-12.768a13.859,13.859,0,0,1,2.528-3.885c.359-.419.8-.707,1.187-1.091l5.949.476c-.1.056-.323.023-.445.08a3.723,3.723,0,0,0-.883.755c-1.253,1.144-2.693,2.754-2.965,4.5a4.757,4.757,0,0,0-.027,1.067,2.748,2.748,0,0,0,.433,1.3c.867,1.157,2.929.365,3.832-.265a15.062,15.062,0,0,0,2.055-1.717,9.067,9.067,0,0,0,1.716-2.913l9.875,1.431Z"/><path class="c" d="M180.079,35.861c-1.595-3.022-.837-7.168.292-10.33a13.859,13.859,0,0,1,2.528-3.885c.359-.419.8-.707,1.187-1.091l5.949.476c-.1.056-.323.023-.445.08a3.723,3.723,0,0,0-.883.755c-1.253,1.144-2.693,2.754-2.965,4.5a4.757,4.757,0,0,0-.027,1.067,2.748,2.748,0,0,0,.433,1.3c.867,1.157,2.929.365,3.832-.265a15.062,15.062,0,0,0,2.055-1.717,9.067,9.067,0,0,0,1.716-2.913l7.671,1.111a3.755,3.755,0,0,1-1.571,3.111,5.656,5.656,0,0,1-1.455.714c-.573.152-1.051.076-1.483.57-.71.811-.534,1.925-.941,2.853a2.579,2.579,0,0,1-1.426,1.284,3.96,3.96,0,0,1-2.111.114c-.526-.094-1.271-.462-1.8-.229-1.474.656-1.472,2.862-2.824,3.708a2.277,2.277,0,0,1-2.169,0c-1.235-.548-2.539-1.728-3.908-1.911a1.678,1.678,0,0,0-1.658.7Z"/><path class="b" d="M186.083,64.93a67.39,67.39,0,0,1,11.226-1.46l12.031-.951c2.777-.22,6.02.027,6-2.251s-2.973-15.195-4.653-20.028-1.879-11.748-3.323-12.728-.469-1.2-1.757-1.192a5.029,5.029,0,0,1-3.3-1.109c-.872-.721-1.683,0-2.875,0s-4.546,2.036-8.129,0-3.413-3.251-3.593-3.931-1.067.343-2.938-.12-1.887-3.444-.71-4.984l3.055-4c1.177-1.54,4.782-2.465,6.963-2.484s4.8-.044,7.448-.066,5.4.675,6.343,1.63c1.173,1.188,2.128,2.824,3.108,3.817a65.878,65.878,0,0,1,5.67,8.545c.737,1.592,3.705,8,5.27,11.378s5.538,9,7.937,17.134,5.129,11.378,4.652,15.774-1.8,4.813-7.129,7.636S213.94,84.39,204.841,87.487l-14.564,4.956s-7.445-26.63-4.194-27.513Z"/><path class="f" d="M72.709,76.167a3.512,3.512,0,0,1-2.1-3.79c.042-1.942,1.989-3.987,4.992-4.171s9.863.248,13.046.08S93.42,68.5,95,69.736a3.717,3.717,0,0,1,1.1,4.91,3.606,3.606,0,0,1-3.6,1.966c-1.942.038-17.771.682-19.783-.445Z"/><path class="f" d="M100.127,76.5a4.594,4.594,0,0,1-2.108-4.829c.446-1.8,1.119-2.82,3.793-3.282a52.133,52.133,0,0,1,9.381-.926c3.731,0,8.323.4,9.759.926a3.107,3.107,0,0,1,2.12,3.711,4.871,4.871,0,0,1-4.046,4.007c-2.263.271-17.35,1.22-18.9.393Z"/><path class="f" d="M84.678,68.526c-1.835-.532-2.814-3.221-1.855-5.084s3.128-3.229,7.188-3.454l8.2-.454c1.863-.1,6.335.019,8.042.17s3.988,1.355,4.088,3.431a4.941,4.941,0,0,1-4.829,5.4c-3.757.141-19,.523-20.836-.008Z"/><path class="c" d="M70.607,72.918c0-.175,0-.355,0-.541.042-1.942,1.989-3.987,4.992-4.171s9.863.248,13.046.08S93.42,68.5,95,69.736a4.275,4.275,0,0,1,1.4,1.905,6.525,6.525,0,0,1-4.771,2.208c-1.935-.078-2.933-2.293-4.85-2.165-1.317.088-1.79,1.323-2.739,2.034a2.42,2.42,0,0,1-1.851.339c-1.543-.162-2.278-1.658-3.651-2.165a3.371,3.371,0,0,0-1.669-.077,2.493,2.493,0,0,0-.73.156A15.823,15.823,0,0,0,74.1,73.614a2.579,2.579,0,0,1-3.024-.262,4.123,4.123,0,0,1-.472-.434Z"/><path class="c" d="M82.56,64.143a3.276,3.276,0,0,1,.263-.7c.958-1.863,3.128-3.229,7.188-3.454l8.2-.454c1.863-.1,6.335.019,8.042.17a4.831,4.831,0,0,1,3.809,2.334,1.239,1.239,0,0,0-.332.023c-2.167.433-2.688,3.433-5.176,3.433a4.132,4.132,0,0,1-2.428-.949c-.747-.534-1.522-1.523-2.56-1.394-1.777.222-2.519,2.936-4.481,2.749a4.466,4.466,0,0,1-2.6-1.355c-.438-.405-1.089-1.137-1.747-1.137a5.9,5.9,0,0,0-1.113.046c-.578.115-1,.8-1.393,1.166a4.111,4.111,0,0,1-2.673,1.242,4,4,0,0,1-3-1.719Z"/><path class="c" d="M97.919,72.789a3.779,3.779,0,0,1,.1-1.12c.446-1.8,1.119-2.82,3.793-3.282a52.133,52.133,0,0,1,9.381-.926c3.731,0,8.323.4,9.759.926a3.107,3.107,0,0,1,2.12,3.711c-.016.081-.036.164-.057.245a6.813,6.813,0,0,1-2.859-.971,4.975,4.975,0,0,0-3.063-.969c-2.445.294-3.625,3.3-5.992,3.56a4.278,4.278,0,0,1-2.887-1.2c-.6-.644-1.267-1.63-2.249-1.7-1.8-.139-2.8,1.663-4.3,2.249a4.558,4.558,0,0,1-3.71-.494l-.032-.028Z"/><path class="e" d="M65.429,76.119a19.97,19.97,0,0,0,3.46,6.02c1.382,1.672,4.652,3.5,6.334,3.5H87.287c1.491,0,22.124,0,27.386-.6s7.931-.678,9.273-1.873,5.658-7.4,5.658-7.4a145.306,145.306,0,0,1-15.679.326c-10.753-.191-19.022.226-27.288.325s-18.447-.874-21.208-.3Z"/><path class="b" d="M141.806,83.728c-2.5,2.754-2.9,5.105-4.629,9.716l-6.635,17.66c-.27.719-2-1.274-5.188-4.61s-8.048-8.434-11.33-11.875L109.1,89.463a13.215,13.215,0,0,0,.685-1.8,3.294,3.294,0,0,0-1.457-3.165c-1.09-.853-4.118-1.189-6.306-1.192s-3.163.406-3.31,1.152-2.424.534-5.238.738-5.243-.543-6.4.465.5,2.528,2.723,3.109l7.556,1.979c1.685.442,6.462,1.691,6.462,1.691s1.082,3.379,1.842,5.515,2.771,7.782,4.187,11.755,5.393,12.356,7.4,15.246,5.546,7.531,11.762,6.875,12.392-8.041,15.079-10.22,9.2-8.635,9.2-8.635-9-32-11.491-29.251Z"/><path class="g" d="M187.867,72.145c3.445,5.5,5.9,18.829,5.9,18.829l-3.491,1.469s-1.676-13.388-2.41-20.3Z"/><path class="g" d="M145.5,93c1,5.131,1.413,26.119,1.413,26.119l6.38-6.135S144.5,87.866,145.5,93Z"/><path class="h" d="M141.806,83.728a53.622,53.622,0,0,1,7.7-6.415,27.921,27.921,0,0,1,5.784-2.607l10.815-3.99s3.8-2.054,6.3-3.333,5.64-1.6,7.715-2.139a25.675,25.675,0,0,1,5.962-.314,99.065,99.065,0,0,1,3.143,15.707l2.072,23.274a15.619,15.619,0,0,1-.82,4.531l-32.625,13.172s-1.621-3.1-3.088-5.569-3.495-8.536-5.051-11.553-3.175-9.177-4.606-12.35-2.508-6.653-3.3-8.414Z"/><path class="b" d="M152.557,65.27c.128-.107-.039.343.006.505.06.2.164.4.232.6.388,1.166.821,2.335,1.156,3.517.343,1.208.54,2.46.926,3.656.044.137.141,1.089.415,1.158a19.087,19.087,0,0,0,2.639.786,8.315,8.315,0,0,0,1.8,0A6.774,6.774,0,0,0,165.307,72a6.624,6.624,0,0,0,.8-1.288,17.238,17.238,0,0,0-1.25-3.333c-1.064-2.836-1.723-4.592-2.669-7.115"/><path class="i" d="M164.364,36.645a2.483,2.483,0,0,0,1.743.651,1.858,1.858,0,0,0,1.883-1.644m-14.1,3.755c.044-.035-.143-.089-.143-.089s.294.2.432.314a4.3,4.3,0,0,0,1.336.707c1.715.514,4.321.119,4.321-2.2m3.6,3.118a1.3,1.3,0,0,1,.678-.643c2.518-1.469,3.19,2.679,1.684,3.3"/><path class="g" d="M166.564,46.89a12.891,12.891,0,0,1-6.726,2.693,20.491,20.491,0,0,1-5.143-.443,8.928,8.928,0,0,0,.224,4,8.318,8.318,0,0,0,3.845,4.965,5.343,5.343,0,0,0,5.6-.246c1.557-1.035,2.164-2.871,2.59-4.666a9.583,9.583,0,0,0-.389-6.3Z"/><path class="g" d="M163.793,64.547a11.663,11.663,0,0,1-5.25,1.954c1.738.733,2.666,1.486,4.229,1.783l2.7.515s-1.157-2.93-1.683-4.252Z"/><path class="j" d="M188.6,19.594a6.132,6.132,0,0,1,1.977-2.462"/></svg>