<?xml version="1.0" encoding="iso-8859-1"?>
<!-- Uploaded to: SVG Repo, www.svgrepo.com, Generator: SVG Repo Mixer Tools -->
<svg version="1.1" id="Layer_1" xmlns="http://www.w3.org/2000/svg" xmlns:xlink="http://www.w3.org/1999/xlink" 
	 viewBox="0 0 512 512" xml:space="preserve">
<path style="fill:#0068FF;" d="M362.346,318.071l129.93,129.93c12.241,12.24,12.24,32.085,0.001,44.324l0,0
	c-12.24,12.239-32.084,12.241-44.32,0L318.023,362.396L362.346,318.071z"/>
<rect x="255.936" y="177.183" transform="matrix(0.7071 -0.7071 0.7071 0.7071 -112.97 272.6647)" style="fill:#FFFFFF;" width="33.429" height="191.032"/>
<path style="fill:#F1F2F2;" d="M106.37,31.287l86.157,86.157c7.902,7.902,8.227,20.393,0.724,27.894l0,0
	c-7.503,7.503-19.99,7.177-27.894-0.725L79.202,58.457L58.408,79.249l86.156,86.156c7.904,7.902,8.229,20.392,0.725,27.895l0,0
	c-7.502,7.502-19.991,7.177-27.894-0.726l-86.156-86.156l-20.793,20.794l91.927,91.929c24.479,24.478,63.161,25.486,86.398,2.248
	l32.568-32.569c23.237-23.236,22.23-61.919-2.247-86.398l-91.929-91.927L106.37,31.287z"/>
<path style="fill:#1EB615;" d="M193.998,362.367L64.096,492.269c-12.241,12.24-32.085,12.239-44.324,0l0,0
	c-12.239-12.24-12.241-32.084,0-44.32l129.901-129.906L193.998,362.367z"/>
<path style="fill:#FFFFFF;" d="M317.5,194.543c-4.039-4.039-7.682-8.296-10.906-12.734L160.017,328.386l23.638,23.639
	l146.577-146.579C325.795,202.222,321.539,198.58,317.5,194.543z"/>
<path style="fill:#F1F2F2;" d="M450.701,189.219c-46.054,46.055-97.888,40.635-133.201,5.324
	c-35.314-35.314-40.732-87.148,5.321-133.203c46.055-46.053,126.14-68.886,161.453-33.574
	C519.587,63.079,496.754,143.165,450.701,189.219z"/>
<path d="M369.733,310.684c-1.959-1.959-4.615-3.06-7.387-3.06c-2.771,0-5.428,1.101-7.387,3.06l-2.954,2.954l-57.595-57.594
	l37.197-37.198c15.117,9.125,31.735,13.993,48.509,13.993c27.307,0,54.27-12.529,77.974-36.233
	c24.146-24.147,42.401-56.865,50.085-89.766c8.539-36.568,2.675-67.274-16.513-86.462C478.39,7.107,459.202,0.092,436.172,0.092
	c-40.001,0-88.522,21.644-120.738,53.861c-23.718,23.719-36.247,50.698-36.232,78.021c0.009,16.756,4.876,33.357,13.992,48.46
	l-37.198,37.198l-24.445-24.444c24.331-27.504,22.415-70.665-5.071-98.153L134.551,3.107c-4.08-4.079-10.695-4.079-14.774,0
	L98.983,23.9c-1.959,1.959-3.06,4.617-3.06,7.387s1.101,5.428,3.06,7.387l86.157,86.157c1.921,1.92,3.016,4.4,3.083,6.981
	c0.062,2.376-0.776,4.556-2.358,6.138c-1.523,1.523-3.616,2.361-5.893,2.361c-2.669,0-5.236-1.096-7.226-3.087L86.589,51.07
	c-4.08-4.08-10.696-4.08-14.774,0L51.022,71.862c-4.08,4.08-4.08,10.695,0,14.774l86.156,86.156c1.921,1.921,3.017,4.4,3.084,6.982
	c0.063,2.376-0.775,4.556-2.359,6.139c-1.522,1.521-3.616,2.36-5.894,2.36c-2.669,0-5.235-1.096-7.225-3.087L38.627,99.031
	c-1.959-1.959-4.615-3.06-7.387-3.06c-2.771,0-5.428,1.101-7.387,3.06L3.06,119.825c-4.08,4.08-4.08,10.695,0,14.774l91.929,91.929
	c14.251,14.25,32.949,22.098,52.65,22.098c17.075,0,33.069-6.025,45.5-17.027l24.445,24.446l-57.567,57.567l-2.955-2.955
	c-1.959-1.959-4.617-3.06-7.387-3.06c-2.771,0-5.428,1.101-7.387,3.06L12.387,440.561c-7.894,7.892-12.241,18.385-12.241,29.547
	c0,11.162,4.347,21.655,12.24,29.548c7.893,7.893,18.387,12.239,29.548,12.239c11.163,0,21.656-4.347,29.549-12.239l129.901-129.902
	c4.08-4.08,4.08-10.695,0-14.774l-2.954-2.954l57.566-57.567l57.595,57.595l-2.955,2.955c-1.959,1.959-3.06,4.617-3.06,7.387
	c0,2.771,1.101,5.428,3.06,7.387l129.933,129.927c7.891,7.894,18.385,12.241,29.546,12.241c11.162,0,21.656-4.347,29.549-12.239
	c7.893-7.893,12.24-18.387,12.24-29.548c0-11.163-4.347-21.657-12.24-29.549L369.733,310.684z M56.709,484.882
	c-3.947,3.946-9.193,6.12-14.775,6.12c-5.581,0-10.828-2.174-14.774-6.119c-3.946-3.947-6.12-9.193-6.12-14.775
	c0-5.58,2.173-10.825,6.12-14.772l122.514-122.517l29.549,29.549L56.709,484.882z M330.208,68.727
	c28.556-28.555,71.14-47.741,105.964-47.741c12.111,0,29.006,2.458,40.715,14.167c13.69,13.69,17.676,38.086,10.94,66.935
	c-6.722,28.78-23.362,58.591-44.513,79.743c-19.7,19.701-41.554,30.114-63.2,30.114c-19.911,0-39.007-8.573-55.226-24.791
	C297.549,159.816,284.589,114.348,330.208,68.727z M147.638,227.731c-14.121,0-27.573-5.675-37.876-15.978l-84.54-84.541
	l6.019-6.019l78.767,78.767c5.937,5.938,13.751,9.207,22.002,9.207c7.859-0.001,15.198-3.012,20.666-8.48
	c5.676-5.676,8.685-13.296,8.471-21.457c-0.207-7.956-3.474-15.49-9.197-21.213L73.183,79.249l6.019-6.019l78.768,78.768
	c5.937,5.937,13.75,9.206,22,9.206c7.858,0,15.198-3.012,20.667-8.48c5.675-5.675,8.684-13.294,8.471-21.456
	c-0.207-7.956-3.473-15.49-9.195-21.214l-78.769-78.768l6.02-6.019l84.541,84.54c20.366,20.368,21.375,52.498,2.247,71.625
	l-32.566,32.568C172.531,222.855,160.546,227.731,147.638,227.731z M208.011,216.924l8.863-8.864l24.347,24.347l-8.864,8.864
	L208.011,216.924z M305.802,197.376c1.389,1.543,2.823,3.064,4.313,4.554c1.489,1.489,3.009,2.922,4.551,4.31l-131.01,131.01
	l-8.864-8.864L305.802,197.376z M279.634,270.818l57.595,57.594l-8.865,8.865l-57.594-57.595L279.634,270.818z M484.89,484.936
	c-3.947,3.947-9.194,6.12-14.775,6.12c-5.58,0-10.825-2.173-14.771-6.12l-122.547-122.54l14.774-14.775l11.82-11.82
	c0.001-0.001,0.002-0.003,0.004-0.004l2.95-2.951l122.543,122.543c3.947,3.946,6.12,9.193,6.12,14.775
	C491.01,475.744,488.836,480.992,484.89,484.936z"/>
<path d="M400.648,62.879c1.304,0,2.63-0.246,3.912-0.765l0.157-0.062c5.362-2.13,7.983-8.203,5.853-13.565
	c-2.13-5.362-8.204-7.985-13.565-5.853l-0.275,0.11c-5.349,2.163-7.932,8.252-5.77,13.601
	C392.602,60.411,396.515,62.879,400.648,62.879z"/>
<path d="M343.768,178.722c2.673,0,5.348-1.02,7.387-3.06c4.08-4.08,4.08-10.695,0-14.775c-18.54-18.54-14.709-45.406,9.998-70.114
	c4.762-4.763,10.112-9.282,15.902-13.435c4.689-3.363,5.764-9.889,2.401-14.578c-3.364-4.689-9.89-5.763-14.578-2.401
	c-6.711,4.814-12.935,10.076-18.5,15.639c-16.66,16.661-26.208,35.022-27.613,53.097c-1.347,17.324,4.91,33.862,17.614,46.567
	C338.42,177.702,341.095,178.722,343.768,178.722z"/>
</svg>